<?xml version="1.0" encoding="utf-8"?>
<!-- Generator: Adobe Illustrator 17.1.0, SVG Export Plug-In . SVG Version: 6.00 Build 0)  -->
<!DOCTYPE svg PUBLIC "-//W3C//DTD SVG 1.1//EN" "http://www.w3.org/Graphics/SVG/1.1/DTD/svg11.dtd">
<svg version="1.1" id="Layer_1" xmlns="http://www.w3.org/2000/svg" xmlns:xlink="http://www.w3.org/1999/xlink" x="0px" y="0px"
	 viewBox="0 0 220 50" enable-background="new 0 0 220 50" xml:space="preserve">
<g>
	<path fill="none" d="M75.991,25.999h-4.843v8.405h4.683c1.449,0,3.884-0.499,3.884-3.848V29.88
		C79.715,27.268,78.496,25.999,75.991,25.999z"/>
	<polygon fill="none" points="165.317,14.838 161.797,28.345 170.312,28.345 166.793,14.838 	"/>
	<path fill="none" d="M79.3,19.508v-0.286c0-2.474-1.163-3.624-3.662-3.624h-4.49v7.669h4.683C77.546,23.267,79.3,22.82,79.3,19.508
		z"/>
	<path fill="none" d="M186.648,14.87h-5.218v10.113h5.281c1.603,0,4.518-0.83,4.518-4.576v-1.023
		C191.229,15.572,188.25,14.87,186.648,14.87z"/>
	<path fill="#FFFFFF" d="M80.044,24.559c1.726-1.352,2.022-3.601,2.022-4.984v-0.386c0-3.058-1.688-6.326-6.428-6.326h-7.26v24.275
		h7.424c5.275,0,6.68-4.076,6.68-6.487v-0.802C82.482,28.875,82.281,25.999,80.044,24.559z M71.148,15.598h4.49
		c2.498,0,3.662,1.15,3.662,3.624v0.286c0,3.312-1.754,3.758-3.469,3.758h-4.683V15.598z M79.715,30.555
		c0,3.35-2.434,3.848-3.884,3.848h-4.683v-8.405h4.843c2.505,0,3.724,1.269,3.724,3.881V30.555z"/>
	<path fill="none" d="M101.079,20.405v-1.022c0-3.416-2.696-3.786-3.853-3.786h-4.489v8.658h4.551
		C97.922,24.256,101.079,24.071,101.079,20.405z"/>
	<path fill="#FFFFFF" d="M103.846,20.438v-1.151c0-2.385-1.393-6.424-6.62-6.424h-7.261v24.274h2.772V26.992h3.855l4.452,10.145
		h3.134l-4.694-10.463C102.684,25.58,103.846,22.707,103.846,20.438z M92.737,24.256v-8.658h4.489c1.157,0,3.853,0.369,3.853,3.786
		v1.022c0,3.665-3.157,3.851-3.791,3.851H92.737z"/>
	<polygon fill="#FFFFFF" points="124.151,34.404 113.681,34.404 113.681,25.679 123.35,25.679 123.35,22.944 113.681,22.944 
		113.681,15.599 124.151,15.599 124.151,12.863 110.913,12.863 110.913,37.137 124.151,37.137 	"/>
	<polygon fill="#FFFFFF" points="147.252,31.648 142.801,12.894 140.336,12.894 135.857,31.647 132.161,12.894 129.257,12.894 
		134.302,37.137 137.29,37.137 141.577,19.586 145.814,37.137 148.805,37.137 153.88,12.894 150.978,12.894 	"/>
	<path fill="#FFFFFF" d="M173.737,36.41l-6.081-22.82h-3.267l-5.956,22.82h1.249l1.794-6.784h9.187l1.763,6.784H173.737z
		 M161.797,28.345l3.52-13.506h1.476l3.519,13.506H161.797z"/>
	<path fill="#FFFFFF" d="M186.648,13.591h-6.532V36.41h1.314V26.265h5.058l4.45,10.145h1.539l-4.579-10.209
		c3.809-0.833,4.641-4.065,4.641-5.764v-1.15C192.538,17.432,191.548,13.591,186.648,13.591z M191.229,20.407
		c0,3.746-2.916,4.576-4.518,4.576h-5.281V14.87h5.218c1.602,0,4.581,0.702,4.581,4.514V20.407z"/>
	<polygon fill="#FFFFFF" points="198.055,13.59 198.055,14.87 203.944,14.87 203.944,36.41 205.257,36.41 205.257,14.87 
		211.119,14.87 211.119,13.59 	"/>
</g>
<g>
	<path fill="none" d="M8.523,42.084H36.71c0.809,0,1.914-0.1,3.061-0.419L8.523,8.87V42.084z"/>
	<polygon fill="#FFFFFF" points="0,50 48.791,50 48.791,47.545 2.456,47.545 2.456,2.455 48.791,2.455 48.791,0 0,0 	"/>
	<path fill="#FFFFFF" d="M46.768,16.119v-0.639c0-3.1-2.203-9.349-10.378-9.349H6.334V44.22h30.324
		c8.177,0,10.806-6.464,10.806-9.618v-1.333c0-2.244-1.508-7.427-6.478-8.708C45.422,23.011,46.768,18.311,46.768,16.119z
		 M36.71,42.084H8.523V8.87l31.247,32.795C38.624,41.985,37.519,42.084,36.71,42.084z"/>
</g>
</svg>
